# xmcd CD database file
#
# Track frame offsets:
#	150
#	22318
#	42635
#	63146
#	84133
#	104986
#	126056
#	146575
#	168240
#	189725
#
# Disc length: 2788 seconds
#
# Revision: 0
# Processed by: cddbd v1.5.2PL0 Copyright (c) Steve Scherf et al.
# Submitted via: CDex 1.70beta2
#
DISCID=8e0ae20a
DTITLE=Various Artist - LOUNGE STYLE Bois de rose by Lawrence and Boost
DYEAR=2006
DGENRE=Jazz
TTITLE0=Thunderbirds Mix(Barry Gray)
TTITLE1=Status Of People
TTITLE2=Tell Me Once
TTITLE3=Last Party
TTITLE4=Ticket For The Dream
TTITLE5=Amethyst Ring
TTITLE6=Cloud Nine
TTITLE7=Yard Sale
TTITLE8=WKEND
TTITLE9=Theme From Star Trek(Alexander Courage)
EXTD=YEAR: 2006
EXTT0=
EXTT1=
EXTT2=
EXTT3=
EXTT4=
EXTT5=
EXTT6=
EXTT7=
EXTT8=
EXTT9=
PLAYORDER=
